<svg xmlns:cc="http://creativecommons.org/ns#" xmlns:dc="http://purl.org/dc/elements/1.1/" xmlns:inkscape="http://www.inkscape.org/namespaces/inkscape" xmlns:rdf="http://www.w3.org/1999/02/22-rdf-syntax-ns#" xmlns:sodipodi="http://sodipodi.sourceforge.net/DTD/sodipodi-0.dtd" xmlns:svg="http://www.w3.org/2000/svg" xmlns="http://www.w3.org/2000/svg" xmlns:xlink="http://www.w3.org/1999/xlink" version="1.1" x="0px" y="0px" viewBox="-1.6 -3.2 35.2 43.2" style="enable-background:new 0 0 32 32;" xml:space="preserve"><g><path d="M25,8c0-0.6-0.4-1-1-1c-0.3,0-0.5,0.1-0.7,0.3L16,14.6L8.7,7.3   c-0.4-0.4-1-0.4-1.4,0c-0.4,0.4-0.4,1,0,1.4c0,0,0,0,0,0l8,8c0.4,0.4,1,0.4,1.4,0c0,0,0,0,0,0l8-8C24.9,8.5,25,8.3,25,8z"/><path d="M28,13c0-0.6-0.4-1-1-1c-0.3,0-0.5,0.1-0.7,0.3L16,22.6L5.7,12.3   c-0.4-0.4-1-0.4-1.4,0c-0.4,0.4-0.4,1,0,1.4c0,0,0,0,0,0l11,11c0.4,0.4,1,0.4,1.4,0c0,0,0,0,0,0l11-11C27.9,13.5,28,13.3,28,13z"/></g><text x="0.0" y="37.6" font-size="1.6" font-weight="bold" font-family="Arbeit Regular, Helvetica, Arial-Unicode, Arial, Sans-serif" fill="#000000">Created by Gulalicon</text><text x="0.0" y="39.2" font-size="1.6" font-weight="bold" font-family="Arbeit Regular, Helvetica, Arial-Unicode, Arial, Sans-serif" fill="#000000">from Noun Project</text></svg>