<svg xmlns="http://www.w3.org/2000/svg" viewBox="0 0 67 88.75" fill="none" x="0px" y="0px">
    <path
        d="M45 46 L57 53 L45 60 Z"
        fill="black"
        stroke="black"
        stroke-width="4"
        stroke-linejoin="round" />
    <path fill-rule="evenodd" clip-rule="evenodd"
        d="M0.364573 36.7873C2.95774 53.9236 18.6944 65.8158 35.7824 63.7715C38.9096 67.6423 43.6951 70.1178 49.0588 70.1178C58.4802 70.1178 66.1176 62.4803 66.1176 53.0589C66.1176 48.9806 64.6864 45.2365 62.2989 42.3015C63.9008 37.6027 64.4295 32.4603 63.6354 27.2127C60.9915 9.74098 44.6845 -2.27935 27.2127 0.364573C9.74098 3.0085 -2.27935 19.3155 0.364573 36.7873ZM4.31955 36.1888C6.49429 50.5601 19.234 60.716 33.4535 59.9599C32.5191 57.8499 32 55.5151 32 53.0589C32 51.7008 32.1587 50.3797 32.4586 49.1132C32.3257 49.1162 32.1925 49.1178 32.0588 49.1178C22.6375 49.1178 15 41.4803 15 32.0589C15 22.6376 22.6375 15.0001 32.0588 15.0001C41.4802 15.0001 49.1176 22.6376 49.1176 32.0589C49.1176 33.4171 48.9589 34.7382 48.659 36.0047C48.7919 36.0017 48.9252 36.0001 49.0588 36.0001C52.7914 36.0001 56.244 37.1989 59.0526 39.2325C60.021 35.6175 60.2762 31.7482 59.6805 27.8112C57.3671 12.5237 43.0987 2.00616 27.8112 4.31955C12.5237 6.63294 2.00616 20.9013 4.31955 36.1888ZM36 53.0589C36 45.8468 41.8466 40.0001 49.0588 40.0001C56.271 40.0001 62.1176 45.8468 62.1176 53.0589C62.1176 60.2711 56.271 66.1178 49.0588 66.1178C41.8466 66.1178 36 60.2711 36 53.0589Z"
        fill="black" />
    <text x="0" y="86" fill="#000000" font-size="5px" font-weight="bold"
        font-family="'Helvetica Neue', Helvetica, Arial-Unicode, Arial, Sans-serif">Created by Ally
        Hwang</text>
    <text x="0" y="91" fill="#000000" font-size="5px" font-weight="bold"
        font-family="'Helvetica Neue', Helvetica, Arial-Unicode, Arial, Sans-serif">from the Noun
        Project</text>
</svg>