<svg xmlns="http://www.w3.org/2000/svg" viewBox="1.998434066772461 23.301000595092773 95.99565887451172 53.409080505371094">
<path d="m86.898 54.199h3.3008c1.6992 0 3.1016-1.3984 3.1016-3.1016v-8.6016c0-1.1992-0.89844-2.1016-2.1016-2.1016-1.1992 0-2.1016 0.89844-2.1016 2.1016v1.6992l-26.098 0.003907v10.801h13.602c0 0.19922 0 0.30078 0.10156 0.5-1.8008 1.1016-3.1992 2.6016-4.3008 4.3984h-28.801c-0.10156-0.19922-0.10156-0.39844-0.19922-0.60156-0.39844-2.3008 0-4.3008 0.10156-4.8008 1 0.30078 2.1016 0.5 3.3008 0.5h13.398l-0.003906-12.195-3.6016-3.5c-5.1016-4.8008-12.199-3.8008-15.699-2.8008l5.5-7.8008h10.199c0.80078 0 1.3984-0.60156 1.3984-1.3984 0-0.80078-0.60156-1.3984-1.3984-1.3984l-10.797-0.003906c-0.5 0-0.89844 0.19922-1.1016 0.60156l-4.5 6.3008v-1.5c0-3-2.3984-5.5-5.5-5.5h-7.1992c-0.80078 0-1.3984 0.60156-1.3984 1.3984v11.199c0 0.80078 0.60156 1.3984 1.3984 1.3984h7.1992 0.39844l-6.5 9.1992c-2.5-1.5-5.3984-2.3984-8.5-2.3984-8.8984 0.003906-16.098 7.2031-16.098 16.102 0 0.80078 0.60156 1.3984 1.3984 1.3984 0.80078 0 1.3984-0.60156 1.3984-1.3984 0-7.3984 6-13.398 13.398-13.398 2.5 0 4.8984 0.69922 6.8984 1.8984l-1.8945 2.8008c-1.8984-1.1016-4.1016-1.6016-6.6016-1.1992-4.3008 0.60156-7.6992 4.1016-8.3984 8.3008-1.0977 6.8984 4.8008 12.699 11.699 11.598 4.1992-0.69922 7.5-4 8.1992-8.1992 0.60156-3.3984-0.60156-6.6016-2.6992-8.8008l1.8984-2.6992c2.6016 2.3984 4.3008 5.8984 4.3008 9.8008 0 0.80078 0.60156 1.3984 1.3984 1.3984 0.80078 0 1.3984-0.60156 1.3984-1.3984h5.5c1.6016 3 4.6992 4.8984 8.3008 4.8984h25.602c0.69922 3.8008 4.1992 6.6992 8.3008 6.5 4-0.30078 7.1992-3.6016 7.3008-7.6016 0.10156-4.3984-3.3984-8.1016-7.8984-8.1016-0.69922 0-1.3984 0.10156-2.1016 0.30078l-0.89844-1.8008c0.89844-0.30078 1.8984-0.39844 2.8984-0.39844 5.3984 0 9.8008 4.3984 9.8984 9.8008 0 0.69922 0.60156 1.3984 1.3008 1.5 0.80078 0 1.3984-0.60156 1.3984-1.3984 0.003906-6-3.8945-10.801-9.0977-12.301zm-50.898 5.8008c-0.60156-3.6992-2.5-6.8984-5.1992-9.3008l4.1992-5.8984c0.5 3.6992 2.8008 6.8984 6 8.6992 0 0.10156-0.10156 0.19922-0.10156 0.30078 0 0.10156-0.69922 2.8984-0.19922 6.1016v0.10156zm14 4.8984c-1.8984 0-3.6992-0.80078-4.8984-2.1016h26.102c-0.19922 0.69922-0.39844 1.3984-0.39844 2.1016zm25.602 0h-2c0.39844-2.8008 2-5.3008 4.3008-6.8008l0.89844 1.8008c-1.6016 1.1016-2.8008 2.9023-3.1992 5z"/>
</svg>
