<svg xmlns="http://www.w3.org/2000/svg" viewBox="2.6885123252868652 2.1875 94.62435913085938 95.62737274169922">
<path d="m76.984 81.398c0 6.1836-9.2734 6.1836-9.2734 0 0-6.1797 9.2734-6.1797 9.2734 0z"/>
<path d="m72.348 67.492c-5.6289-0.003907-10.699 3.3867-12.855 8.5859-2.1523 5.1992-0.96484 11.184 3.0156 15.16 3.9805 3.9805 9.9648 5.1719 15.164 3.0156 5.1992-2.1523 8.5859-7.2266 8.5859-12.855 0-7.6797-6.2266-13.906-13.91-13.906zm0 21.68c-3.1406 0-5.9727-1.8906-7.1758-4.793-1.1992-2.9023-0.53516-6.2422 1.6836-8.4609 2.2188-2.2227 5.5586-2.8867 8.4609-1.6836 2.9023 1.1992 4.793 4.0312 4.793 7.1719-0.007813 4.2812-3.4805 7.7539-7.7617 7.7578z"/>
<path d="m55.883 85.789h-11.766c0.76172-2.875 0.76172-5.8984 0-8.7734h11.766c-0.76172 2.875-0.76172 5.8984 0 8.7734z"/>
<path d="m11.188 85.789h-2.1211c-5.8359 0-5.8398-8.7734 0-8.7734h2.1211c-0.76172 2.875-0.76172 5.8984 0 8.7734z"/>
<path d="m90.934 85.789h-2.1211c0.76172-2.875 0.76172-5.8984 0-8.7734h2.125c5.832 0 5.8359 8.7734-0.003906 8.7734z"/>
<path d="m53.445 7.8125v13.445h-10.754v-13.445c0-1.7266 1.3984-3.125 3.125-3.125h4.5078c1.7227 0 3.1211 1.3984 3.1211 3.125z"/>
<path d="m32.289 81.398c0 6.1836-9.2734 6.1836-9.2734 0 0-6.1797 9.2734-6.1797 9.2734 0z"/>
<path d="m27.652 67.492c-5.6289 0-10.699 3.3867-12.852 8.5859-2.1562 5.1992-0.96484 11.184 3.0156 15.164 3.9805 3.9766 9.9609 5.168 15.16 3.0117 5.1992-2.1523 8.5898-7.2266 8.5859-12.855 0.003906-3.6875-1.4648-7.2266-4.0742-9.8359s-6.1445-4.0742-9.8359-4.0703zm0 21.68c-3.1406 0-5.9727-1.8906-7.1758-4.793-1.1992-2.9023-0.53516-6.2422 1.6836-8.4609 2.2188-2.2227 5.5586-2.8867 8.4609-1.6836 2.9023 1.1992 4.793 4.0312 4.793 7.1719-0.007812 4.2812-3.4805 7.7539-7.7617 7.7578z"/>
<path d="m70.941 22.961c-1.5664-1.1055-3.4375-1.6992-5.3555-1.7031h-9.0156v-11.523h9.8203c7.875-0.007813 9.3906 9.5469 4.5508 13.227z"/>
<path d="m39.566 9.7266v11.523h-9.0586c-1.9102 0.003906-3.7773 0.59375-5.3438 1.6953-4.7969-3.6797-3.2891-13.219 4.5391-13.219z"/>
<path d="m56.938 34.273-1.0547 11.062c-0.085937 0.875 0.20703 1.75 0.79688 2.4023 0.59375 0.64844 1.4336 1.0234 2.3125 1.0195h15.598c-2.6328-17.758-2.5508-17.312-2.5664-17.312h-11.973c-1.6133-0.003906-2.9648 1.2227-3.1133 2.8281z"/>
<path d="m89.32 61.234c-0.54297-5.3086-5.0156-9.3477-10.352-9.3516h-19.977c-1.7578 0.003907-3.4375-0.73828-4.6211-2.0391-1.1836-1.3047-1.7656-3.043-1.5977-4.7969l1.0547-11.062c0.29297-3.2148 2.9922-5.6758 6.2227-5.6641h11.34c-0.94531-2.3789-3.2461-3.9375-5.8047-3.9375h-35.078c-3.0938 0-5.7266 2.2695-6.1797 5.332l-3.2891 22.168c-5.3398 0.003907-9.8086 4.043-10.352 9.3516l-1.293 12.656h2.9688c1.8828-3.8281 5.1289-6.8164 9.1055-8.3633s8.3906-1.5469 12.367 0c3.9766 1.5469 7.2227 4.5352 9.1055 8.3633h14.117c1.8828-3.8281 5.1289-6.8164 9.1055-8.3633 3.9766-1.5469 8.3906-1.5469 12.367 0s7.2227 4.5352 9.1055 8.3633h2.9766zm-47.473-9.3516h-8.4336c-1.3438 0.003907-2.625-0.57422-3.5156-1.5859-0.89063-1.0078-1.3047-2.3516-1.1367-3.6875l1.7578-14.191v0.003906c0.29688-2.3438 2.2891-4.1016 4.6523-4.1016h8.0273-0.003907c1.3242 0 2.582 0.55469 3.4727 1.5352 0.88672 0.97656 1.3242 2.2812 1.1992 3.5977l-1.3594 14.191v-0.003906c-0.21875 2.4102-2.2422 4.25-4.6602 4.2422zm13.902 10.859-7.6797 0.003906c-0.86328 0-1.5625-0.69922-1.5625-1.5625 0-0.86328 0.69922-1.5625 1.5625-1.5625h7.6797c0.86328 0 1.5625 0.69922 1.5625 1.5625 0 0.86328-0.69922 1.5625-1.5625 1.5625zm24.359-0.91016v0.003907c-0.63281 0-1.2031-0.37891-1.4453-0.96094-0.23828-0.58594-0.10547-1.2578 0.33984-1.7031 0.44922-0.44922 1.1211-0.58203 1.7031-0.33984 0.58594 0.24219 0.96484 0.8125 0.96484 1.4414 0 0.86328-0.69922 1.5625-1.5625 1.5625z"/>
<path d="m43.203 31.445h-8.0273c-0.78906 0-1.4531 0.58594-1.5508 1.3672l-1.7578 14.191v-0.003906c-0.054688 0.44531 0.082031 0.89453 0.37891 1.2305 0.29688 0.33594 0.72266 0.53125 1.1719 0.52734h8.4336c0.80859 0.003907 1.4844-0.60937 1.5625-1.4141l1.3555-14.191v0.003906c0.042969-0.44141-0.10547-0.87891-0.40234-1.2031-0.30078-0.32812-0.72266-0.51172-1.1641-0.50781z"/>
</svg>
