<svg xmlns="http://www.w3.org/2000/svg" xmlns:xlink="http://www.w3.org/1999/xlink" version="1.1" x="0px" y="0px" viewBox="0 0 50 62.5" style="enable-background:new 0 0 50 50;" xml:space="preserve"><style type="text/css">
	.st0{fill:none;stroke:#000000;stroke-width:2;stroke-miterlimit:10;}
</style><g><path d="M25,16.8c-1.3-1.4-3.1-2.3-5.1-2.3c-3.7,0-6.9,3.4-6.9,7.4c0,3.9,4,10.8,11.7,13.4l0.3,0.1l0.3-0.1   C32.9,32.8,37,25.9,37,21.9c0-4-3.2-7.4-6.9-7.4C28.1,14.6,26.3,15.4,25,16.8z"/><rect x="24" y="1" width="2.1" height="8.3"/><rect x="24" y="40.7" width="2.1" height="8.3"/><rect x="1" y="24" width="8.3" height="2.1"/><rect x="40.7" y="24" width="8.3" height="2.1"/><polygon points="6.2,29.2 4.1,29.2 4.1,45.9 20.8,45.9 20.8,43.8 6.2,43.8  "/><polygon points="43.8,43.8 29.2,43.8 29.2,45.9 45.9,45.9 45.9,29.2 43.8,29.2  "/><polygon points="43.8,20.8 45.9,20.8 45.9,4.1 29.2,4.1 29.2,6.2 43.8,6.2  "/><polygon points="6.2,6.2 20.8,6.2 20.8,4.1 4.1,4.1 4.1,20.8 6.2,20.8  "/></g><text x="0" y="65" fill="#000000" font-size="5px" font-weight="bold" font-family="'Helvetica Neue', Helvetica, Arial-Unicode, Arial, Sans-serif">Created by DinosoftLabs</text><text x="0" y="70" fill="#000000" font-size="5px" font-weight="bold" font-family="'Helvetica Neue', Helvetica, Arial-Unicode, Arial, Sans-serif">from the Noun Project</text></svg>